HIERARCHY
ROOT Pelvis
{
	OFFSET 0.000000 0.000000 0.000000
	CHANNELS 6 Xposition Yposition Zposition Zrotation Yrotation Xrotation 
	JOINT Left_hip
	{
		OFFSET 0.068973 -0.091024 -0.007589
		CHANNELS 3 Zrotation Yrotation Xrotation
		JOINT Left_knee
		{
			OFFSET 0.036482 -0.391037 -0.003979
			CHANNELS 3 Zrotation Yrotation Xrotation
			JOINT Left_ankle
			{
				OFFSET -0.012239 -0.415469 -0.043440
				CHANNELS 3 Zrotation Yrotation Xrotation
				JOINT Left_foot
				{
					OFFSET 0.023806 -0.058558 0.118702
					CHANNELS 3 Zrotation Yrotation Xrotation
					End Site
					{
						OFFSET 0.000000 0.000000 0.000000
					}
				}
			}
		}
	}
	JOINT Right_hip
	{
		OFFSET -0.066552 -0.090468 -0.003847
		CHANNELS 3 Zrotation Yrotation Xrotation
		JOINT Right_knee
		{
			OFFSET -0.042435 -0.398340 -0.006400
			CHANNELS 3 Zrotation Yrotation Xrotation
			JOINT Right_ankle
			{
				OFFSET 0.014931 -0.415421 -0.041327
				CHANNELS 3 Zrotation Yrotation Xrotation
				JOINT Right_foot
				{
					OFFSET -0.021472 -0.049410 0.121889
					CHANNELS 3 Zrotation Yrotation Xrotation
					End Site
					{
						OFFSET 0.000000 0.000000 0.000000
					}
				}
			}
		}
	}
	JOINT Spine1
	{
		OFFSET -0.002904 0.105700 -0.022855
		CHANNELS 3 Zrotation Yrotation Xrotation
		JOINT Spine2
		{
			OFFSET 0.004179 0.132554 -0.002501
			CHANNELS 3 Zrotation Yrotation Xrotation
			JOINT Spine3
			{
				OFFSET 0.001987 0.049603 0.025988
				CHANNELS 3 Zrotation Yrotation Xrotation
				JOINT Neck
				{
					OFFSET -0.003935 0.211336 -0.045638
					CHANNELS 3 Zrotation Yrotation Xrotation
					JOINT Head
					{
						OFFSET 0.003906 0.065991 0.051018
						CHANNELS 3 Zrotation Yrotation Xrotation
						End Site
						{
							OFFSET 0.000000 0.000000 0.000000
						}
					}
				}
				JOINT Left_collar
				{
					OFFSET 0.072882 0.117751 -0.036270
					CHANNELS 3 Zrotation Yrotation Xrotation
					JOINT Left_shoulder
					{
						OFFSET 0.082118 0.032630 -0.005771
						CHANNELS 3 Zrotation Yrotation Xrotation
						JOINT Left_elbow
						{
							OFFSET 0.263305 -0.015144 -0.028095
							CHANNELS 3 Zrotation Yrotation Xrotation
							JOINT Left_wrist
							{
								OFFSET 0.250741 0.010115 -0.000759
								CHANNELS 3 Zrotation Yrotation Xrotation
								JOINT Left_palm
								{
									OFFSET 0.080683 -0.009989 -0.013613
									CHANNELS 3 Zrotation Yrotation Xrotation
									End Site
									{
										OFFSET 0.000000 0.000000 0.000000
									}
								}
							}
						}
					}
				}
				JOINT Right_collar
				{
					OFFSET -0.074811 0.116132 -0.040385
					CHANNELS 3 Zrotation Yrotation Xrotation
					JOINT Right_shoulder
					{
						OFFSET -0.085089 0.032943 -0.007484
						CHANNELS 3 Zrotation Yrotation Xrotation
						JOINT Right_elbow
						{
							OFFSET -0.254763 -0.014219 -0.020321
							CHANNELS 3 Zrotation Yrotation Xrotation
							JOINT Right_wrist
							{
								OFFSET -0.256597 0.009233 -0.005063
								CHANNELS 3 Zrotation Yrotation Xrotation
								JOINT Right_palm
								{
									OFFSET -0.080528 -0.007219 -0.010379
									CHANNELS 3 Zrotation Yrotation Xrotation
									End Site
									{
										OFFSET 0.000000 0.000000 0.000000
									}
								}
							}
						}
					}
				}
			}
		}
	}
}
MOTION
Frames: 12
Frame Time: 0.100000
0.000000 0.000000 0.000000 -177.552530 -3.631703 -18.951737 8.648409 9.003892 11.299612 -1.565404 7.736201 -1.199127 -4.589677 11.701550 2.635477 3.848446 7.180718 -3.715471 -0.389601 -6.241123 15.018781 3.829019 -4.709897 -4.474972 2.153704 -6.301563 -3.588454 0.175224 -3.330596 5.779952 0.997531 1.388212 -0.697546 0.742136 -3.942320 14.529836 0.924677 -1.172287 -0.251393 -0.067137 13.264645 9.319495 -2.107529 1.993093 -13.405217 -24.502311 -4.829877 9.280945 -51.125196 3.299714 10.204084 1.867746 -18.988099 15.555478 -16.859958 -8.897811 14.070162 -11.079023 -4.514808 -23.747424 23.763878 11.192475 9.146824 50.508385 0.769453 11.978002 -6.320460 22.101841 7.423024 7.391808 7.407058 8.293458 12.987025 4.077489 -9.173351 
-0.004951 -0.000248 0.002543 -177.652940 -3.831739 -19.244535 8.575111 9.099054 11.949060 -1.668827 7.752669 -1.352854 -4.391739 12.059252 2.156742 3.976427 6.549729 -3.592404 -0.499630 -6.263470 14.969987 3.593659 -5.014561 -3.473666 1.517966 -5.837415 -4.003262 1.272629 -4.087395 5.754911 1.268214 1.404540 -0.540744 0.680044 -3.350955 14.311565 0.849291 -0.890523 -0.396913 0.059308 12.661206 9.220450 -2.138123 2.266253 -12.717339 -24.635184 -3.671106 8.955097 -50.635242 3.284426 9.903884 2.996165 -22.583427 14.456132 -14.404438 -10.402483 12.596299 -10.479129 -3.731380 -22.801652 24.142682 10.284312 9.517214 50.957889 -0.011976 11.883093 -6.036413 21.788493 7.330474 6.607552 7.942358 7.036039 11.822178 3.594464 -8.298232 
-0.006193 0.000369 0.005026 -177.568645 -3.652970 -19.658574 8.707354 8.757143 12.874220 -2.188980 7.558778 -1.725836 -4.175807 11.641797 1.613277 4.475676 6.827671 -3.359331 -0.592543 -6.118226 14.067927 3.240530 -6.092569 -0.406737 -0.001459 -5.133653 -5.408128 3.282290 -5.642487 5.786122 0.975644 0.965704 -0.385902 0.665527 -2.925588 13.786196 0.728390 -1.287725 -0.809419 2.480891 10.890431 9.702638 -1.196393 1.679637 -9.323283 -25.795195 -2.747215 8.487536 -48.528037 2.153271 9.459767 5.017470 -34.157638 14.611493 -9.209622 -13.460716 11.753735 -9.184154 -2.112923 -21.018431 24.729257 8.898241 9.248937 49.461421 -0.199557 12.201058 -6.694901 31.499400 8.751570 3.109036 10.076271 6.380079 9.561821 2.590196 -6.699089 
-0.002905 0.000231 0.011667 -177.664208 -3.472801 -19.981978 9.309426 7.978530 13.356652 -2.611027 8.455936 -1.204490 -4.141549 9.953619 1.046047 5.661254 8.672590 -3.177572 -0.342635 -5.852947 14.315762 3.303502 -7.452608 0.859844 -1.763945 -3.903809 -6.293483 5.210589 -7.796711 6.641916 0.715797 0.271696 -1.562519 0.946841 -3.189819 12.065926 0.550990 -2.316451 -1.433419 7.076041 7.970716 13.873765 -0.266729 0.412146 -2.894492 -26.390416 -2.678853 6.860203 -46.462316 -1.570947 9.529964 6.638732 -55.837272 16.319957 -4.057342 -16.358420 10.508532 -8.649075 -0.507761 -19.129752 23.426370 8.087603 7.063664 46.411847 3.155384 13.697461 -6.152237 52.563100 13.836554 0.224404 13.020215 7.393937 7.197503 1.494640 -5.431157 
0.004312 0.001500 0.017096 -177.249981 -4.682537 -20.030708 9.929223 6.643091 9.592478 -1.649440 11.184721 7.516605 -4.220896 8.062416 -0.370653 7.333173 11.159823 -3.955853 0.162924 -5.197631 14.265199 3.031685 -8.036937 1.941707 -2.978834 -2.435037 -7.224643 4.832074 -8.253316 7.700925 1.219420 0.658647 -2.442594 1.353954 -3.655081 10.448267 0.323189 -2.363269 -3.495784 8.816304 8.105537 17.137853 -1.104456 -1.024784 1.752511 -25.062534 -7.121814 4.022652 -45.548938 -9.295661 9.300712 23.636731 -79.549842 0.771006 0.571351 -17.794379 9.486328 -10.156420 -0.410998 -16.802405 21.905566 11.815679 4.832638 43.815118 10.718107 13.121053 -12.524688 74.525229 9.262432 -1.710980 15.678779 8.863926 7.375581 1.279717 -5.304810 
0.009629 0.001330 0.020979 -176.108834 -7.570550 -23.126548 10.941875 9.102972 5.696636 0.740975 7.191935 22.174103 -6.652893 13.333729 3.988122 11.687213 9.612003 -14.841899 0.498654 -5.565717 18.739995 1.239395 -1.312677 0.553061 -1.821546 -5.703625 -7.155608 1.741015 -4.474289 5.576163 2.444075 3.797739 -6.694489 1.718245 -6.334141 19.204935 -0.862665 1.300046 -4.898001 5.390754 5.685081 17.763052 -1.505665 0.322328 2.493350 -21.807364 -19.385014 1.678536 -40.142063 -25.242350 10.996605 95.088954 -75.216242 -61.484602 32.345707 -25.774381 15.181594 -20.935780 -9.285025 -7.667004 17.488201 23.368023 2.171831 38.888058 19.800426 7.987927 -106.787733 80.293777 -80.210922 -27.088692 24.127814 10.674775 21.270404 7.107449 -0.455686 
0.011497 -0.002311 0.030629 -173.896004 -9.646903 -24.482315 10.060119 6.811995 -1.451541 1.296426 9.526188 37.058647 -6.070025 14.972729 6.994101 14.106072 9.805363 -16.978936 -1.033601 -4.680362 20.360047 0.397354 0.388762 0.795211 -0.496344 -5.176535 -6.456475 -2.751745 -4.156327 1.931426 2.973571 5.346579 -5.465284 1.464060 -7.107205 17.663746 -0.581764 2.286726 -5.881525 2.986506 6.803744 19.978980 -1.049360 2.906952 4.747582 -16.767603 -24.793626 -0.824401 -34.735207 -35.525518 5.725016 109.116982 -68.683403 -71.858041 39.129544 -26.309847 14.032995 -19.892272 -8.114322 -3.923432 12.683509 28.941858 -0.657608 34.861194 30.982904 4.431081 -120.260263 73.436355 -91.880442 -31.848710 25.551331 13.212279 21.154447 7.392675 -0.136908 
0.012113 -0.006384 0.048532 -172.474649 -10.600590 -24.020731 8.946464 5.257336 -7.550820 -1.704269 8.634393 41.502547 -6.260492 11.407390 4.915348 13.630940 10.369200 -16.868548 -2.583530 -4.438747 20.969541 0.031466 1.336655 0.289179 0.917018 -4.524837 -6.417751 -4.970031 -4.429476 0.741977 2.932551 5.913599 -5.039542 1.781302 -8.015376 14.565788 -0.090720 2.367529 -5.913888 2.331276 7.598010 20.889776 -0.249917 4.880828 5.851617 -13.754827 -25.737372 -2.893590 -32.333494 -38.772074 3.333296 111.519991 -65.883973 -71.639888 40.181900 -26.844953 15.085422 -18.646427 -7.559904 -2.504812 10.055315 29.877614 -3.049245 34.128713 36.217019 3.406070 -118.829043 71.067456 -88.977616 -32.328038 26.065600 14.555886 19.846875 7.566695 0.225698 
0.009938 -0.009524 0.070414 -171.798463 -12.137234 -23.423747 8.079759 5.941298 -10.152892 -2.649562 8.796200 31.811232 -6.597317 10.253050 5.798439 13.962920 9.966242 -15.325859 -3.631284 -4.334518 21.713150 -0.372272 2.435096 -0.113386 2.759678 -4.129543 -7.090567 -6.522269 -3.807681 1.223488 3.676192 6.006235 -4.044534 1.817865 -8.528206 12.567857 0.213934 2.438820 -5.197625 1.963386 7.854406 20.502629 0.036085 6.070846 5.150101 -12.132870 -25.081672 -4.044803 -31.925207 -38.076073 2.380511 115.073581 -64.580807 -73.996550 42.143427 -26.913855 14.076490 -18.354761 -7.792989 -2.091452 8.402516 29.474056 -4.114841 33.984711 38.411834 3.130404 -119.418764 70.355782 -89.030354 -34.177372 26.484198 13.970035 18.623777 7.810227 -0.188437 
0.006490 -0.011996 0.099311 -171.868656 -14.315035 -22.714501 7.495735 8.511376 -9.237599 -2.551745 10.446582 13.253821 -6.820310 11.219722 7.524225 15.232141 8.735426 -12.464033 -4.179081 -4.332310 22.805822 -0.825232 3.717451 -0.492278 4.738114 -3.812883 -8.036855 -7.216339 -2.516482 2.652021 4.511011 5.696789 -3.112252 1.813544 -8.988491 11.869352 0.449669 2.488753 -4.323138 2.146573 8.333805 20.100765 -0.089381 6.881109 4.664320 -10.961417 -24.639466 -4.588243 -31.074401 -37.138289 1.203148 115.753046 -64.195866 -74.851943 41.554087 -26.317579 14.107177 -18.451068 -8.682525 -2.658608 7.886549 29.541427 -4.066505 33.664780 40.140530 3.227693 -117.117953 71.134960 -86.614992 -32.923307 26.045058 15.169672 17.063608 8.213942 -1.190759 
-0.000250 -0.012344 0.138437 -172.879174 -16.962612 -20.978245 7.442470 10.605778 -8.025458 -3.183331 9.982340 -2.235683 -7.297888 10.884340 8.575808 15.857005 8.199789 -10.486317 -4.248145 -4.183964 23.355695 -1.005777 4.919805 -0.466213 6.233809 -3.092725 -9.340236 -7.620139 -1.992924 3.957650 5.116488 5.172104 -2.542903 2.120540 -9.338477 11.302870 0.883917 2.293565 -3.557016 2.780343 10.437045 19.173820 -0.385815 8.285862 3.075046 -10.295670 -23.608098 -5.043536 -30.670964 -35.110366 0.588303 117.014571 -64.153224 -76.199114 40.247807 -25.718112 14.317541 -18.872672 -9.473764 -3.729722 8.119504 28.796195 -3.871959 35.119887 39.941086 4.648550 -120.466494 71.653882 -90.121274 -31.799942 25.385289 13.935056 16.234586 8.307857 -1.790162 
-0.011241 -0.015976 0.188830 -173.452948 -21.134842 -19.224515 7.653188 12.505838 -7.629298 -3.308269 13.696501 -3.779474 -6.328662 12.163485 8.040980 15.688842 7.776909 -9.975881 -5.048339 -3.517347 22.779723 -1.749607 6.250844 1.733738 7.431966 -1.474698 -9.402103 -7.815190 -1.915583 3.022506 5.224330 4.987337 -2.175849 1.875861 -8.887494 11.713997 0.730555 2.507217 -3.359885 3.775137 14.151694 18.569576 -1.024315 10.422259 -0.253452 -9.869272 -22.076224 -5.619517 -30.743044 -32.746217 0.798554 120.238424 -64.449472 -79.012606 40.700895 -25.974976 13.580269 -18.630789 -9.530084 -4.396302 8.370390 27.451725 -3.138620 36.500284 39.134814 5.702740 -124.606136 72.243603 -94.018874 -32.243977 25.594985 13.134259 15.993332 8.045685 -2.222821 
